<?xml version="1.0" encoding="UTF-8" standalone="no"?>
<!-- Created with Inkscape (http://www.inkscape.org/) -->

<svg
   xmlns:dc="http://purl.org/dc/elements/1.1/"
   xmlns:cc="http://creativecommons.org/ns#"
   xmlns:rdf="http://www.w3.org/1999/02/22-rdf-syntax-ns#"
   xmlns:svg="http://www.w3.org/2000/svg"
   xmlns="http://www.w3.org/2000/svg"
   xmlns:sodipodi="http://sodipodi.sourceforge.net/DTD/sodipodi-0.dtd"
   xmlns:inkscape="http://www.inkscape.org/namespaces/inkscape"
   width="32.959419mm"
   height="21.939219mm"
   viewBox="0 0 32.959419 21.939219"
   version="1.1"
   id="svg948"
   inkscape:version="0.92.3 (2405546, 2018-03-11)"
   sodipodi:docname="free-wifi.svg">
  <defs
     id="defs942" />
  <sodipodi:namedview
     id="base"
     pagecolor="#ffffff"
     bordercolor="#666666"
     borderopacity="1.0"
     inkscape:pageopacity="0.0"
     inkscape:pageshadow="2"
     inkscape:zoom="0.35"
     inkscape:cx="-300"
     inkscape:cy="559.99999"
     inkscape:document-units="mm"
     inkscape:current-layer="layer1"
     showgrid="false"
     inkscape:pagecheckerboard="true"
     inkscape:window-width="2880"
     inkscape:window-height="1675"
     inkscape:window-x="-13"
     inkscape:window-y="-13"
     inkscape:window-maximized="1" />
  <metadata
     id="metadata945">
    <rdf:RDF>
      <cc:Work
         rdf:about="">
        <dc:format>image/svg+xml</dc:format>
        <dc:type
           rdf:resource="http://purl.org/dc/dcmitype/StillImage" />
        <dc:title></dc:title>
      </cc:Work>
    </rdf:RDF>
  </metadata>
  <g
     inkscape:label="Layer 1"
     inkscape:groupmode="layer"
     id="layer1"
     transform="translate(0,-275.06078)">
    <path
       d="m 15.03151,285.23049 0.007,4.79509 -1.80439,0.004 c -0.0191,-0.19759 -0.004,-3.03307 -0.004,-3.3123 v -1.2252 c 0,-0.0615 -0.005,-0.14679 -10e-4,-0.20499 0.006,-0.0785 0.0575,-0.0609 0.1451,-0.0602 0.33397,0.003 1.43129,-0.0177 1.65727,0.004 z m 17.92791,-0.7492 v 4.23129 c -0.027,0.0588 -0.0386,0.24941 -0.055,0.3284 -0.2759,1.32902 -1.27419,2.74041 -2.4192,3.4042 -1.32941,0.77061 -2.2484,0.85891 -3.7876,0.86032 -0.19759,1.8e-4 -1.43189,-0.0325 -1.51899,0.0278 -0.34251,0.23717 -0.84212,0.79897 -1.20992,1.12017 -0.6374,0.55672 -1.61918,1.11951 -2.39148,1.47141 -3.48203,1.58672 -7.97472,1.4412 -11.19742,-0.59708 -0.87178,-0.55143 -1.4503,-1.29713 -2.33828,-1.93312 -0.12682,-0.0908 -0.0952,-0.0933 -0.2824,-0.0921 -0.74563,0.005 -2.36421,0.0352 -3.02683,-0.0692 -0.98919,-0.15589 -1.44688,-0.3242 -2.28699,-0.80881 -1.01289,-0.5842 -1.9703,-1.94518 -2.31401,-3.1194 -0.0802,-0.27418 -0.0948,-0.52959 -0.1173,-0.6119 L 0,288.66657 v -4.35339 c 0.0333,-0.0531 0.0755,-0.5208 0.11028,-0.6852 0.31189,-1.4739 1.08941,-2.44972 2.25432,-3.30972 0.63539,-0.46909 1.39139,-0.73829 2.33158,-0.83499 0.49121,-0.0505 1.01981,-0.0522 1.53151,-0.0506 l 1.18939,0.001 c 0.17191,-0.042 0.86759,-0.82649 1.01219,-0.98002 0.53552,-0.56868 1.08233,-0.98827 1.73602,-1.42949 0.81771,-0.5516 2.28731,-1.27049 3.22538,-1.53747 0.76412,-0.21763 1.22361,-0.30473 2.00861,-0.37631 0.1233,-0.0112 0.68291,-0.0284 0.74221,-0.0496 h 0.97649 c 0.0659,0.0287 0.61352,0.0563 0.73801,0.0724 0.76189,0.0986 1.2736,0.18341 2.02378,0.39941 1.81603,0.52278 3.8312,1.57388 5.07683,2.97099 0.12869,0.14429 0.2323,0.26409 0.35969,0.43998 l 0.31789,0.4832 c 0.12481,0.0421 1.28291,0.0236 1.5228,0.0264 1.40282,0.0164 2.51682,0.19219 3.64811,0.9955 1.06761,0.75819 1.8778,2.00449 2.07158,3.35898 0.0129,0.0903 0.0706,0.64332 0.0827,0.67352 z m -11.62169,-3.97771 6.34678,1.1e-4 c 2.37709,0 4.21859,1.88418 4.21859,4.27369 v 3.77772 c 0,1.2083 -0.90607,2.28889 -1.5113,2.79199 -1.50519,1.2513 -2.9343,0.99 -4.93628,0.98749 l -10.34411,-0.003 c 0.0406,-0.062 0.38202,-0.29478 0.47911,-0.36847 0.53241,-0.40471 0.8781,-0.80751 1.14381,-1.46219 0.15988,-0.39381 0.32748,-0.86981 0.38199,-1.3504 0.18598,-1.63943 -0.0406,-3.22083 0.10269,-4.45851 0.0858,-0.74101 0.38132,-1.5299 0.69882,-2.07571 0.6513,-1.1193 1.73259,-2.113 3.4199,-2.113 z m -7.98502,3.61019 c -0.0849,-0.50638 0.28822,-0.92029 0.70361,-0.98827 0.53079,-0.087 0.93031,0.27679 1.00041,0.72238 0.079,0.50232 -0.29323,0.91451 -0.71353,0.9772 -0.51389,0.0766 -0.91937,-0.2872 -0.99049,-0.71131 z m -10.11799,-1.48989 1.9014,-0.007 0.5975,3.57519 c 0.0136,0.0775 0.0596,0.45181 0.10471,0.51132 l 0.99049,-4.08122 c 0.1481,-0.02 1.80178,-0.0203 1.90659,0.004 0.1632,0.6966 0.32889,1.3715 0.49851,2.05151 0.0328,0.1318 0.47078,1.98561 0.50539,2.049 l 0.6871,-4.10852 1.88909,-7.1e-4 c 10e-4,0.10368 -1.01349,5.2922 -1.06397,5.54729 -0.0429,0.21629 -0.32572,1.79342 -0.36721,1.84739 -0.0463,0.0465 -1.9394,0.0158 -1.9583,0.0139 -0.0601,-0.18768 -0.0912,-0.3853 -0.1432,-0.57178 l -0.8479,-3.47831 c -0.0232,-0.0921 -0.0441,-0.17847 -0.07,-0.28737 -0.0153,-0.0646 -0.0463,-0.23382 -0.0901,-0.28452 -0.0797,0.37102 -0.18951,0.78409 -0.28141,1.1477 -0.10029,0.39691 -0.18641,0.77932 -0.2824,1.1697 l -0.4198,1.72551 c -0.0268,0.11211 -0.10781,0.4977 -0.14662,0.57951 l -1.95869,0.004 -1.45119,-7.406 z m 10.89981,-5.50848 c 0.29478,-0.0244 0.687,-0.003 0.9924,-0.003 0.28028,0 0.65398,-0.0143 0.87037,0.1246 0.32922,0.21128 0.36241,0.78299 0.0374,1.04588 -0.16019,0.12972 -0.26528,0.11829 -0.31989,0.16429 0.15652,0.0846 0.15042,0.0461 0.25742,0.17582 0.12559,0.15219 0.4428,0.72948 0.46767,0.8642 l -0.81717,-0.005 c -0.0813,-0.16788 -0.20619,-0.38879 -0.30141,-0.56338 -0.10121,-0.1856 -0.1676,-0.42231 -0.4608,-0.39211 l -0.005,0.96093 -0.72989,-0.007 0.009,-2.36478 z m -1.48163,0.92177 0.9077,0.002 0.004,0.47548 -0.9047,0.003 -0.009,0.95962 c -0.0818,0.0202 -0.6422,0.0182 -0.73459,0.003 l -0.002,-2.36467 c 0.1851,-0.0154 1.74491,-0.0199 1.7919,0.0105 0.0355,0.0324 0.0192,0.44231 0.0132,0.49332 l -1.06511,0.006 -0.002,0.41159 z m 7.14851,-0.0462 1.13581,0.008 0.001,0.48222 -1.12727,10e-4 -0.004,0.4658 1.267,0.003 -0.007,0.53252 -1.9903,0.003 -0.003,-2.3664 1.95622,-0.005 0.003,0.4988 -1.2295,0.006 -0.002,0.37059 z m -2.3847,10e-4 1.1358,0.007 10e-4,0.48112 c -0.24941,0.009 -0.9574,-0.0325 -1.13513,0.0112 l -0.002,0.45349 1.27321,0.007 -0.01,0.5303 -1.98889,0.005 -0.004,-2.3694 1.95668,-0.002 c 0.005,0.15568 -0.0215,0.35969 0.0111,0.49569 l -1.23532,0.009 -0.003,0.37207 z"
       style="fill:#fefefe;fill-opacity:1;fill-rule:evenodd;stroke:none;stroke-width:0.35277775"
       id="path919"
       inkscape:connector-curvature="0" />
    <path
       d="m 20.25061,290.11907 c 0.14149,0.0224 2.04829,0.0152 2.11811,-0.003 l 0.002,-3.01442 2.63112,-0.004 c 0.0217,-0.0755 0.0212,-1.36458 0.006,-1.49849 l -2.62371,-0.005 c -0.0311,-0.10022 -0.0234,-1.13552 -0.01,-1.29342 l 3.0886,-0.003 c 0.021,-0.2383 0.004,-0.95349 0.004,-1.27392 0,-0.0688 2.1e-4,-0.13698 0.001,-0.20577 0.002,-0.11441 0.0139,-0.11723 -0.0948,-0.11833 -0.3405,-0.003 -4.95152,-0.0135 -5.1176,0.007 l -0.004,7.41148 z"
       style="fill:#fefefe;fill-opacity:1;fill-rule:evenodd;stroke:none;stroke-width:0.35277775"
       id="path921"
       inkscape:connector-curvature="0" />
    <path
       d="m 26.54441,290.12027 1.89141,0.006 0.002,-4.65501 -1.8924,-0.003 -0.001,4.65198 z"
       style="fill:#fefefe;fill-opacity:1;fill-rule:evenodd;stroke:none;stroke-width:0.35277775"
       id="path923"
       inkscape:connector-curvature="0" />
    <path
       d="m 27.35883,283.22128 c -1.1545,0.20549 -0.83411,1.87469 0.26959,1.70081 0.41628,-0.0656 0.79421,-0.46979 0.71279,-0.98732 -0.0677,-0.42979 -0.48059,-0.80278 -0.98238,-0.71349"
       style="fill:#fefefe;fill-opacity:1;fill-rule:evenodd;stroke:none;stroke-width:0.35277775"
       id="path925"
       inkscape:connector-curvature="0" />
    <path
       d="m 15.07592,278.07538 c 0.21198,-1.1e-4 0.43208,-0.018 0.44799,-0.22331 0.0194,-0.25019 -0.19018,-0.2582 -0.39698,-0.2582 l -0.26543,0.008 2.1e-4,0.46849 z"
       style="fill:#fefefe;fill-opacity:1;fill-rule:evenodd;stroke:none;stroke-width:0.35277775"
       id="path927"
       inkscape:connector-curvature="0" />
  </g>
</svg>
