<?xml version="1.0" encoding="UTF-8" standalone="no"?>
<!-- Created with Inkscape (http://www.inkscape.org/) -->

<svg
   xmlns:dc="http://purl.org/dc/elements/1.1/"
   xmlns:cc="http://creativecommons.org/ns#"
   xmlns:rdf="http://www.w3.org/1999/02/22-rdf-syntax-ns#"
   xmlns:svg="http://www.w3.org/2000/svg"
   xmlns="http://www.w3.org/2000/svg"
   xmlns:sodipodi="http://sodipodi.sourceforge.net/DTD/sodipodi-0.dtd"
   xmlns:inkscape="http://www.inkscape.org/namespaces/inkscape"
   width="20mm"
   height="20mm"
   viewBox="0 0 19.999999 20"
   version="1.1"
   id="svg4078"
   inkscape:version="0.92.3 (2405546, 2018-03-11)"
   sodipodi:docname="logo.svg">
  <defs
     id="defs4072" />
  <sodipodi:namedview
     id="base"
     pagecolor="#ffffff"
     bordercolor="#666666"
     borderopacity="1.0"
     inkscape:pageopacity="0.0"
     inkscape:pageshadow="2"
     inkscape:zoom="7.9195959"
     inkscape:cx="95.598492"
     inkscape:cy="17.236009"
     inkscape:document-units="mm"
     inkscape:current-layer="layer1"
     showgrid="false"
     inkscape:window-width="2880"
     inkscape:window-height="1675"
     inkscape:window-x="-13"
     inkscape:window-y="-13"
     inkscape:window-maximized="1"
     units="mm"
     inkscape:pagecheckerboard="true"
     fit-margin-top="0"
     fit-margin-left="5"
     fit-margin-right="5"
     fit-margin-bottom="0"
     inkscape:measure-start="68.4378,84.8528"
     inkscape:measure-end="91.7976,33.335" />
  <metadata
     id="metadata4075">
    <rdf:RDF>
      <cc:Work
         rdf:about="">
        <dc:format>image/svg+xml</dc:format>
        <dc:type
           rdf:resource="http://purl.org/dc/dcmitype/StillImage" />
        <dc:title></dc:title>
      </cc:Work>
    </rdf:RDF>
  </metadata>
  <g
     inkscape:label="Layer 1"
     inkscape:groupmode="layer"
     id="layer1"
     transform="translate(1.3229167,-277)">
    <g
       id="g842"
       transform="translate(0.4573783,-0.247865)">
      <path
         inkscape:connector-curvature="0"
         id="path877"
         style="fill:#093697;fill-opacity:1;fill-rule:evenodd;stroke:none;stroke-width:0.35277775"
         d="m 8.2197199,280.56062 c 4.5395801,0 8.2196901,3.68011 8.2196901,8.21969 C 16.43941,293.31993 12.7593,297 8.2197199,297 3.68011,297 0,293.31993 0,288.78031 c 0,-4.53958 3.68011,-8.21969 8.2197199,-8.21969" />
      <path
         inkscape:connector-curvature="0"
         id="path879"
         style="fill:#26166b;fill-opacity:1;fill-rule:evenodd;stroke:none;stroke-width:0.35277775"
         d="m 7.69031,282.6225 c 3.4163,0 6.18571,2.757 6.18571,6.15781 0,3.40092 -2.76941,6.15781 -6.18571,6.15781 -3.41619,0 -6.18561,-2.75689 -6.18561,-6.15781 0,-3.40081 2.76942,-6.15781 6.18561,-6.15781" />
      <path
         inkscape:connector-curvature="0"
         id="path881"
         style="fill:#093697;fill-opacity:1;fill-rule:evenodd;stroke:none;stroke-width:0.35277775"
         d="m 7.69031,285.35322 c 2.5237,0 4.5696,1.5344 4.5696,3.42709 0,1.89279 -2.0459,3.4272 -4.5696,3.4272 -2.5237,0 -4.5696,-1.53441 -4.5696,-3.4272 0,-1.89269 2.0459,-3.42709 4.5696,-3.42709" />
      <path
         inkscape:connector-curvature="0"
         id="path883"
         style="fill:#26166b;fill-opacity:1;fill-rule:evenodd;stroke:none;stroke-width:0.35277775"
         d="m 7.69031,286.7832 c 1.108,0 2.00621,0.89412 2.00621,1.99711 0,1.103 -0.89821,1.99711 -2.00621,1.99711 -1.10801,0 -2.00611,-0.89411 -2.00611,-1.99711 0,-1.10299 0.8981,-1.99711 2.00611,-1.99711" />
      <path
         inkscape:connector-curvature="0"
         id="path885"
         style="fill:#2b2a29;fill-opacity:1;fill-rule:evenodd;stroke:none;stroke-width:0.35277775"
         d="m 7.30021,277.49573 0.22292,3.12067 -2.45191,1.5603 3.1764099,-0.39007 1.3931901,2.50769 -0.2787,-3.17641 2.73061,-1.39319 -3.17641,0.22288 z" />
    </g>
  </g>
</svg>
